# xmcd CD database file
#
# Track frame offsets:
#	150
#	23518
#	48676
#	73968
#	93329
#	118123
#	141283
#	163340
#	187484
#
# Disc length: 2917 seconds
#
# Revision: 1
# Processed by: cddbd v1.5.2PL0 Copyright (c) Steve Scherf et al.
# Submitted via: CDex 1.70beta2
#
DISCID=8c0b6309
DTITLE=The YellowJackets - Club Nocturne
DYEAR=1998
DGENRE=Jazz
TTITLE0=Spirit of the West 
TTITLE1=Stick_to_it_ive_ness
TTITLE2=Up From New Orleans 
TTITLE3=The Evening News
TTITLE4=Even the Pain 
TTITLE5=Love and Paris Rain
TTITLE6=The Village Church 
TTITLE7=Twilight for Nancy
TTITLE8=Automat
EXTD=YEAR: 1998
EXTT0=
EXTT1=
EXTT2=
EXTT3=
EXTT4=
EXTT5=
EXTT6=
EXTT7=
EXTT8=
PLAYORDER=
